<?xml version="1.0" encoding="utf-8"?>
<svg width="25px" height="21px" viewBox="0 0 25 21" version="1.1" xmlns:xlink="http://www.w3.org/1999/xlink" xmlns="http://www.w3.org/2000/svg">
  <g id="basket">
    <g id="Group-3" transform="translate(0 2)">
      <path d="M6 4L23 4L21 12L9 12L5 0L0 0" id="Rectangle" fill="none" fill-rule="evenodd" stroke="#000000" stroke-width="3" />
      <path d="M2 4C3.10457 4 4 3.10457 4 2C4 0.895431 3.10457 0 2 0C0.895431 0 0 0.895431 0 2C0 3.10457 0.895431 4 2 4Z" transform="translate(9 15)" id="Oval" fill="#000000" fill-rule="evenodd" stroke="none" />
      <path d="M2 4C3.10457 4 4 3.10457 4 2C4 0.895431 3.10457 0 2 0C0.895431 0 0 0.895431 0 2C0 3.10457 0.895431 4 2 4Z" transform="translate(17 15)" id="Oval" fill="#000000" fill-rule="evenodd" stroke="none" />
    </g>
  </g>
</svg>