<?xml version="1.0" encoding="utf-8"?>
<svg width="48px" height="22px" viewBox="0 0 48 22" version="1.1" xmlns:xlink="http://www.w3.org/1999/xlink" xmlns="http://www.w3.org/2000/svg">
  <defs>
    <path d="M11 16.5L4.53436 19.8992L5.76919 12.6996L0.538378 7.60081L7.76718 6.55041L11 0L14.2328 6.55041L21.4616 7.60081L16.2308 12.6996L17.4656 19.8992L11 16.5Z" id="path_1" />
    <clipPath id="clip_1">
      <use xlink:href="#path_1" />
    </clipPath>
  </defs>
  <g id="Group-8">
    <g id="4,7" transform="translate(0 2)">
      <path d="M9.52 11.342L7.924 11.342L7.924 13.4L5.712 13.4L5.712 11.342L0.434 11.342L0.434 9.816L5.054 3.6L7.434 3.6L3.15 9.494L5.782 9.494L5.782 7.66L7.924 7.66L7.924 9.494L9.52 9.494L9.52 11.342ZM21.532 5.07L21.532 3.6L13.678 3.6L13.678 7.044L15.694 7.044L15.694 5.448L18.942 5.448L15.428 13.4L17.892 13.4L21.532 5.07ZM11.494 10.796Q12.082 10.796 12.46 11.167Q12.838 11.538 12.838 12.14Q12.838 12.42 12.768 12.7Q12.698 12.98 12.46 13.54L11.662 15.556L10.276 15.556L10.892 13.33Q10.542 13.19 10.339 12.875Q10.136 12.56 10.136 12.14Q10.136 11.538 10.521 11.167Q10.906 10.796 11.494 10.796Z" />
    </g>
    <g id="Icons--Star" transform="translate(26 0)">
      <g id="Star-Copy">
        <g clip-path="url(#clip_1)">
          <use xlink:href="#path_1" fill="none" stroke="#000000" stroke-width="4" />
        </g>
      </g>
    </g>
  </g>
</svg>