<?xml version="1.0" encoding="utf-8"?>
<svg width="23px" height="18px" viewBox="0 0 23 18" version="1.1" xmlns:xlink="http://www.w3.org/1999/xlink" xmlns="http://www.w3.org/2000/svg">
  <defs>
    <path d="M3.5 7C5.433 7 7 5.433 7 3.5C7 1.567 5.433 0 3.5 0C1.567 0 0 1.567 0 3.5C0 5.433 1.567 7 3.5 7Z" transform="translate(2 11)" id="path_1" />
    <path d="M3.5 7C5.433 7 7 5.433 7 3.5C7 1.567 5.433 0 3.5 0C1.567 0 0 1.567 0 3.5C0 5.433 1.567 7 3.5 7Z" transform="translate(12 11)" id="path_2" />
    <path d="M0 0L15 0L15 11L0 11L0 0Z" transform="translate(1 0)" id="path_3" />
    <path d="M0 0L9 0L9 10L0 10L0 0Z" transform="translate(14 3)" id="path_4" />
    <clipPath id="clip_1">
      <use xlink:href="#path_1" />
    </clipPath>
    <clipPath id="clip_2">
      <use xlink:href="#path_2" />
    </clipPath>
    <clipPath id="clip_3">
      <use xlink:href="#path_3" />
    </clipPath>
    <clipPath id="clip_4">
      <use xlink:href="#path_4" />
    </clipPath>
  </defs>
  <g id="Icons--Delivery">
    <g id="Group-7">
      <g id="Oval-Copy">
        <g clip-path="url(#clip_1)">
          <use xlink:href="#path_1" fill="none" stroke="#000000" stroke-width="4" />
        </g>
      </g>
      <g id="Oval-Copy-2">
        <g clip-path="url(#clip_2)">
          <use xlink:href="#path_2" fill="none" stroke="#000000" stroke-width="4" />
        </g>
      </g>
      <g id="Rectangle">
        <g clip-path="url(#clip_3)">
          <use xlink:href="#path_3" fill="none" stroke="#000000" stroke-width="4" />
        </g>
      </g>
      <g id="Rectangle-Copy">
        <g clip-path="url(#clip_4)">
          <use xlink:href="#path_4" fill="none" stroke="#000000" stroke-width="4" />
        </g>
      </g>
      <path d="M0 0L7 0L7 2L0 2L0 0Z" transform="translate(7 12)" id="Rectangle-Copy-2" fill="#000000" fill-rule="evenodd" stroke="none" />
      <path d="M0 0L4 0L4 2L0 2L0 0Z" transform="translate(0 12)" id="Rectangle-Copy-3" fill="#000000" fill-rule="evenodd" stroke="none" />
    </g>
  </g>
</svg>